<?xml version="1.0" encoding="iso-8859-1"?>
<!-- Generator: Adobe Illustrator 19.0.0, SVG Export Plug-In . SVG Version: 6.00 Build 0)  -->
<svg version="1.1" id="Layer_1" xmlns="http://www.w3.org/2000/svg" xmlns:xlink="http://www.w3.org/1999/xlink" x="0px" y="0px"
	 viewBox="0 0 512 512" style="enable-background:new 0 0 512 512;" xml:space="preserve">
<path style="fill:#70E5CF;" d="M280.517,76.212v101.482c0,6.504-1.525,12.653-4.233,18.116h-52.148
	c-17.477,0-32.826,9.07-41.612,22.751h-25.223l-71.056,45.987l1.975-45.987H49.741c-22.574,0-40.867-18.305-40.867-40.867V76.212
	c0-22.586,18.293-40.879,40.867-40.879h189.898C262.212,35.333,280.517,53.626,280.517,76.212z"/>
<path style="fill:#F95428;" d="M503.135,245.215v122.684c0,27.28-22.136,49.405-49.428,49.405H317.045l-5.889,59.362l-35.309-36.066
	l-22.81-23.295h-28.9c-27.292,0-49.417-22.125-49.417-49.405V245.215c0-9.815,2.862-18.955,7.793-26.654h0.012
	c8.786-13.682,24.135-22.751,41.612-22.751h229.571C480.998,195.81,503.135,217.935,503.135,245.215z"/>
<path style="fill:#35D8B9;" d="M33.706,177.694V76.212c0-22.586,18.293-40.879,40.867-40.879H49.741
	c-22.574,0-40.867,18.293-40.867,40.879v101.482c0,22.562,18.293,40.867,40.867,40.867h24.832
	C51.999,218.561,33.706,200.256,33.706,177.694z"/>
<path style="fill:#E54728;" d="M199.552,367.899V245.215c0-9.815,2.862-18.955,7.793-26.654h0.012
	c8.786-13.682,24.135-22.751,41.612-22.751h-24.833c-17.477,0-32.826,9.07-41.612,22.751h-0.012
	c-4.931,7.698-7.793,16.839-7.793,26.654v122.684c0,27.28,22.125,49.405,49.417,49.405h24.833
	C221.676,417.304,199.552,395.18,199.552,367.899z"/>
<g>
	<path style="fill:#333333;" d="M49.737,227.434h29.221l-1.577,36.738c-0.142,3.315,1.577,6.432,4.457,8.079
		c1.367,0.782,2.886,1.171,4.405,1.171c1.679,0,3.356-0.477,4.819-1.424l68.856-44.565h8.724
		c-1.802,5.611-2.786,11.585-2.786,17.786v122.676c0,32.134,26.143,58.278,58.278,58.278h25.178l55.514,56.695
		c1.697,1.734,3.993,2.664,6.337,2.664c0.985,0,1.978-0.164,2.94-0.503c3.249-1.142,5.544-4.063,5.884-7.491l5.097-51.365h128.625
		c32.143,0,58.292-26.144,58.292-58.278V245.22c0-32.134-26.15-58.277-58.292-58.277H288.512c0.569-3.022,0.869-6.105,0.869-9.245
		V76.216c0-27.432-22.317-49.748-49.748-49.748H49.737C22.311,26.468,0,48.784,0,76.216v101.482
		C0,205.122,22.311,227.434,49.737,227.434z M453.709,204.679c22.362,0,40.555,18.186,40.555,40.54v122.676
		c0,22.354-18.193,40.541-40.555,40.541H317.05c-4.559,0-8.376,3.456-8.826,7.994l-4.013,40.459l-44.835-45.788
		c-1.667-1.704-3.952-2.664-6.336-2.664h-28.906c-22.354,0-40.541-18.187-40.541-40.541V245.22c0-22.354,18.187-40.54,40.541-40.54
		h229.575V204.679z M17.737,76.216c0-17.651,14.356-32.01,32-32.01h189.898c17.651,0,32.01,14.36,32.01,32.01v101.482
		c0,3.177-0.459,6.27-1.36,9.245h-46.152c-18.771,0-35.487,8.929-46.153,22.754h-20.683c-1.71,0-3.383,0.494-4.819,1.424
		l-56.639,36.657l1.238-28.832c0.104-2.416-0.784-4.769-2.456-6.516c-1.673-1.747-3.986-2.734-6.404-2.734H49.738
		c-17.645,0-32.001-14.354-32.001-31.998V76.216z"/>
	<path style="fill:#333333;" d="M114.862,105.078c4.899,0,8.869-3.971,8.869-8.869c0-5.846,2.347-11.27,6.609-15.277
		c4.258-4.002,9.836-6.005,15.702-5.641c10.329,0.641,18.922,9.234,19.564,19.562c0.484,7.802-3.346,15.177-9.997,19.249
		c-12.391,7.585-19.789,20.693-19.789,35.065c0,4.898,3.97,8.869,8.869,8.869s8.869-3.971,8.869-8.869
		c0-8.149,4.229-15.601,11.312-19.937c12.265-7.508,19.332-21.102,18.44-35.475c-1.206-19.413-16.755-34.962-36.168-36.167
		c-10.807-0.668-21.086,3.028-28.949,10.418c-7.754,7.287-12.199,17.566-12.199,28.201
		C105.993,101.108,109.963,105.078,114.862,105.078z"/>
	<path style="fill:#333333;" d="M338.925,333.2c4.899,0,8.869-3.971,8.869-8.869v-75.063c0-4.898-3.97-8.869-8.869-8.869
		c-4.899,0-8.869,3.971-8.869,8.869v75.063C330.056,329.229,334.027,333.2,338.925,333.2z"/>
	<circle style="fill:#333333;" cx="338.916" cy="364.068" r="8.869"/>
	<circle style="fill:#333333;" cx="144.679" cy="182.046" r="8.869"/>
</g>
<g>
</g>
<g>
</g>
<g>
</g>
<g>
</g>
<g>
</g>
<g>
</g>
<g>
</g>
<g>
</g>
<g>
</g>
<g>
</g>
<g>
</g>
<g>
</g>
<g>
</g>
<g>
</g>
<g>
</g>
</svg>
